<?xml version="1.0" encoding="UTF-8"?><svg id="a" xmlns="http://www.w3.org/2000/svg" viewBox="0 0 1840.7 594.17"><defs><style>.ao,.ap{stroke-width:6px;}.ao,.ap,.aq,.ar{fill:none;stroke-linecap:round;stroke-linejoin:round;}.ao,.ar{stroke:#11172b;}.ap,.aq{stroke:#3a81f6;}.aq{stroke-width:6px;}.ar{stroke-width:15px;}.as{fill:#3a81f6;}.at{fill:#11172b;}</style></defs><g id="b"><g id="c"><g id="d"><g id="e"><g id="f"><g id="g"><line class="ap" x1="1261.25" y1="297.84" x2="1271.24" y2="275.1"/><path class="ap" d="M1244.27,435.12c5.67-39.13,11.82-81.62,15.36-106"/><path class="ap" d="M1317.77,345.57c-12.37,37.25-37.68,113.33-42.33,127.77-4,12.39-9.51,25.8-20.07,31.22"/><path id="h" class="ap" d="M1331.57,200.69h0c11.17-34.67-7.88-71.83-42.55-82.99s-71.83,7.88-82.99,42.55c-11.17,34.67,7.88,71.82,42.55,82.99,6.56,2.12,13.41,3.2,20.3,3.21,4,0,7.98-.37,11.91-1.11l-9.78,30.23,30.64,9.88M1260.19,207.07c-14.69-4.74-22.76-20.49-18.02-35.18,3.73-11.55,14.48-19.37,26.61-19.37,15.44,0,27.95,12.51,27.95,27.95,0,2.9-.45,5.78-1.33,8.53h0c-4.74,14.68-20.49,22.74-35.17,18l-.04.07Z"/><path id="i" class="ap" d="M1359.7,277.19c31.16,18.85,71.7,8.88,90.55-22.28,2.65-4.38,4.78-9.05,6.35-13.91h0c11.18-34.66-7.85-71.83-42.51-83.02s-71.83,7.85-83.02,42.51c-1.65,5.11-2.67,10.4-3.03,15.75l-22.69,70.4,14.82,4.78M1420.43,229.35c-4.72,14.72-20.49,22.83-35.21,18.11-14.72-4.72-22.83-20.49-18.11-35.21s20.49-22.83,35.21-18.11c.04.01.07.02.11.03,14.66,4.77,22.71,20.5,18,35.18h0Z"/><path class="ap" d="M1250.51,466.56c21.54-40.52,53.62-100.56,67.26-126.07"/><path class="ap" d="M1256.35,327.87l-19,58.88"/><path class="ap" d="M1322.13,290.4l-14.29-5.81c-1.53,3.09-8.79,9.71-18.12,14"/><path class="ap" d="M1300.24,328.55c-.11.79-.29,1.58-.54,2.34-2.42,7.52-10.47,11.66-17.99,9.24-5.48-1.76-9.37-6.64-9.87-12.37"/></g><g id="j"><polyline class="ap" points="1321.48 299.08 1325.01 252.16 1359.7 254.72 1356.36 299.08"/><line class="ap" x1="1304.86" y1="519.97" x2="1319.33" y2="327.73"/><line class="ap" x1="1353.47" y1="328.58" x2="1339.12" y2="519.43"/><path class="as" d="M1320.18,267.38l41.35,3.11,8.86-117.71c2.59-34.49-3.19-41.71-18.42-42.86s-20.79,11.25-23.39,45.75l-8.4,111.71Z"/><path class="ap" d="M1349.72,137.9l25.63,1.93c5.64.42,10,5.11,8.65,22.77l-6.54,87"/><circle class="as" cx="1377.46" cy="249.57" r="6.52"/></g><g id="k"><path class="ap" d="M1224.05,299.08l-6-40.71c-2.03-13.54-6.64-26.56-13.57-38.37l-30.6-52.28c-1.48-2.6-4.78-3.52-7.39-2.04-1.33.75-2.27,2.03-2.61,3.51l-14.07,58.93c-3.18,13.32-3.78,27.13-1.77,40.68l4.51,30.32"/><path class="ap" d="M1256.35,518.83c.03-1.44-.06-2.88-.28-4.3l-27.76-186.8"/><line class="ap" x1="1156.98" y1="328.58" x2="1185.25" y2="518.83"/><path class="as" d="M1197.73,208.43l-23.85-40.75c-1.48-2.6-4.78-3.52-7.39-2.04-1.33.75-2.27,2.03-2.61,3.51l-10.88,45.78c11.86-4.39,32.82-10.81,44.73-6.5Z"/><path class="as" d="M1216.64,251c-.47-2.13-1-4.24-1.6-6.33-10-1.13-22.5-.06-31.28,9.44-12.94-7.57-27.41-2.85-36.79,2,.07,2.22.21,4.45.41,6.67,8.18-4.68,22.46-10.48,34.19-3l5.83,39.27,6.19.8-6.09-40.95c7.71-8.98,19.99-9.29,29.14-7.9Z"/><polygon class="as" points="1197.73 329.37 1191.66 329.37 1219.8 518.69 1225.88 518.83 1197.73 329.37"/></g><g id="l"><g id="m"><g id="n"><line class="ao" x1="1176.06" y1="487.75" x2="1265.53" y2="374.87"/><line class="ao" x1="1189.36" y1="519.18" x2="1268.26" y2="419.2"/><line class="ao" x1="1225.88" y1="518.83" x2="1275.2" y2="457.2"/><line class="ao" x1="1258.97" y1="519.78" x2="1272.99" y2="502"/><line class="ao" x1="1165" y1="453.68" x2="1261" y2="334.63"/><line class="ao" x1="1243.22" y1="518.83" x2="1149.45" y2="405.81"/><line class="ao" x1="1204.13" y1="519.18" x2="1176.06" y2="487.75"/><line class="ao" x1="1264.18" y1="372.09" x2="1228.27" y2="328.58"/><line class="ao" x1="1267.09" y1="414.07" x2="1195.85" y2="329.07"/><line class="ao" x1="1273.36" y1="464.68" x2="1160.44" y2="328.58"/><line class="ao" x1="1272.78" y1="506.32" x2="1125.71" y2="329.07"/><line class="ao" x1="1136.4" y1="361.31" x2="1161.9" y2="328.99"/><line class="ao" x1="1144.51" y1="390.6" x2="1194.11" y2="327.74"/><line class="ao" x1="1154.79" y1="422.24" x2="1229.25" y2="328.58"/></g><g id="o"><line class="ao" x1="1398.61" y1="520.64" x2="1265.65" y2="356.34"/><line class="ao" x1="1359.97" y1="519.97" x2="1268.56" y2="407.01"/><line class="ao" x1="1322.53" y1="519.78" x2="1270.5" y2="455.48"/><line class="ao" x1="1289.21" y1="519.97" x2="1273.26" y2="500.25"/><line class="ao" x1="1419.35" y1="497.42" x2="1279.76" y2="328.58"/><line class="ao" x1="1300.67" y1="518.83" x2="1439.48" y2="348.34"/><line class="ao" x1="1339.12" y1="519.43" x2="1431.85" y2="404.83"/><line class="ao" x1="1375.42" y1="520.64" x2="1422.87" y2="462.01"/><line class="ao" x1="1408.9" y1="520.64" x2="1417.68" y2="509.79"/><line class="ao" x1="1266.33" y1="387.81" x2="1322.13" y2="327.74"/><line class="ao" x1="1265.65" y1="354.48" x2="1289.95" y2="330.01"/><line class="ao" x1="1268.56" y1="424.02" x2="1349.47" y2="327.74"/><line class="ao" x1="1272.43" y1="462.93" x2="1381.53" y2="328.58"/><line class="ao" x1="1273.52" y1="504.56" x2="1424.04" y2="328.99"/><line class="ao" x1="1431.39" y1="386.65" x2="1383.79" y2="327.84"/><line class="ao" x1="1437.68" y1="354.48" x2="1417.05" y2="328.99"/><line class="ao" x1="1429.16" y1="422.86" x2="1352.26" y2="327.84"/><line class="ao" x1="1422.87" y1="458.78" x2="1318.07" y2="329.28"/></g></g><g id="p"><line class="ao" x1="1442.25" y1="327.82" x2="1416.31" y2="519.97"/><line class="ao" x1="1262.71" y1="328.99" x2="1274.35" y2="518.05"/><path class="ao" d="M1115.89,302.21c2.56-2.04,5.73-3.14,9-3.13h334.35c7.94,0,14.37,6.43,14.37,14.37h0c0,7.94-6.43,14.37-14.37,14.37h-200"/><line class="ao" x1="1259.26" y1="327.82" x2="1124.86" y2="327.82"/></g></g></g><g id="q"><g id="r"><path class="ao" d="M314,336.17c-.23,15.66-3.21,31.15-8.8,45.78"/><line class="ao" x1="314.91" y1="352.05" x2="400.35" y2="367.82"/><line class="ao" x1="406.92" y1="386.71" x2="311.75" y2="369.14"/><line class="ao" x1="404.21" y1="377.37" x2="313.33" y2="360.6"/></g><path id="s" class="ao" d="M397,351.49l-97-17.91c-6.88-1.27-11.5-7.46-10.33-13.82s7.7-10.49,14.58-9.22l85.19,15.72"/><path id="t" class="ao" d="M417.94,427.76l-130.94-24.17c-6.88-1.26-11.5-7.45-10.33-13.81s7.7-10.5,14.58-9.23l119.36,22"/></g><path id="u" class="ar" d="M175.69,502.21c-18.52,5.78-62.44,23.25-41.26,54"/><g id="v"><g id="w"><line class="ap" x1="266.14" y1="483.32" x2="441.41" y2="509.29"/><line class="ap" x1="257.84" y1="466.65" x2="437.9" y2="493.32"/><line class="ap" x1="265.92" y1="499.78" x2="446.89" y2="526.59"/><line class="ap" x1="261.3" y1="516.48" x2="455.21" y2="545.21"/><line class="ap" x1="251.17" y1="529.52" x2="390.07" y2="550.11"/></g><path id="x" class="ap" d="M213,446c19.25,2.43,53.28,11.37,53.18,48.79-.09,36.45-32.79,48.16-53.18,49.42"/><polyline id="y" class="ap" points="349.95 550.14 212.96 551.47 212.96 432.45 430.82 475.03"/><path id="z" class="ap" d="M419.05,433.1l-217.48-39.8c-9.78-1.77-19.15,4.72-20.92,14.5-.19,1.06-.29,2.13-.29,3.2v165.27"/></g></g><g id="aa"><path id="ab" class="ao" d="M365,80.65l660.35-6.08c9.82-.09,18.56,6.2,21.6,15.54l139.34,429.05,498.83,3.91s-2,66.69-45.36,66.69H465.92L331.19,126.08c-5.48-18.82,5.33-38.53,24.15-44.01,3.14-.91,6.39-1.39,9.66-1.42Z"/><path id="ac" class="ap" d="M1020.66,108.4l122.76,367.85c1.77,5.3-1.1,11.03-6.4,12.8-1.04.35-2.13.52-3.22.52l-616.45-1.25c-4.47-.02-8.4-2.96-9.68-7.24l-108.46-365.35c-1.6-5.35,1.45-10.98,6.8-12.58.94-.28,1.91-.42,2.88-.42l602.11-1.24c4.38-.03,8.27,2.76,9.66,6.91Z"/><g id="ad"><ellipse class="aq" cx="644.86" cy="230.95" rx="20.72" ry="28.65" transform="translate(51.15 572.56) rotate(-49.62)"/><path class="ap" d="M613.29,304.55c-3.18-25.9,13.37-45.4,40.82-45.4s56.61,19.45,70.31,45.29"/><ellipse class="aq" cx="858.97" cy="363.2" rx="20.72" ry="28.65" transform="translate(25.81 782.23) rotate(-49.62)"/><path class="ap" d="M827.44,437.12c-3.35-26.06,13.22-45.71,40.78-45.71s57.24,19.86,70.75,46.13"/><ellipse class="aq" cx="828.54" cy="203.57" rx="20.72" ry="28.65" transform="translate(136.69 702.84) rotate(-49.62)"/><path class="ap" d="M797.05,277.81c-3.53-26.22,13.07-46,40.74-46s57.49,20,70.92,46.47"/><polyline class="ap" points="713.1 205.08 745.98 306.15 592.83 306.15 555.78 192.29 673.28 192.29"/><polyline class="ap" points="909.88 217.99 929.66 278.77 776.5 278.77 739.45 164.92 892.61 164.92 903.1 197.17"/><polyline class="ap" points="795.61 403.6 769.88 324.55 923.04 324.55 960.09 438.41 806.93 438.41 803.13 426.73"/><polygon class="ap" points="728.96 204.04 677.1 204.04 670.51 183.78 722.37 183.78 728.96 204.04"/><polygon class="ap" points="932.57 217.99 880.71 217.99 874.12 197.74 925.98 197.74 932.57 217.99"/><polygon class="ap" points="813.45 424.8 761.58 424.8 754.99 404.54 806.85 404.54 813.45 424.8"/><line class="ap" x1="531.88" y1="192.29" x2="568.93" y2="306.15"/><polyline class="ap" points="758.32 284.22 765.45 306.15 862.29 306.15"/><polyline class="ap" points="730.3 324.34 752.18 324.34 770.77 381.47"/><path class="ap" d="M734,148.1c1.19.9,153.49,1,153.16,0"/></g><g id="ae"><g id="af"><path class="ao" d="M370.3,80.55s-17.62,1.8-6.53,39.61,133.65,467.6,133.65,467.6"/><line class="ao" x1="1180.54" y1="515.92" x2="477.85" y2="515.92"/><line class="ao" x1="1679.15" y1="546.79" x2="1151.4" y2="546.79"/><path class="ao" d="M1155.2,515.92s-3.35,79.35-45.36,75.08"/></g><g id="ag"><path id="ah" class="as" d="M643.47,531.81h-40.69c-8.28,0-15,6.72-15,15v14.46c0,8.28,6.72,15,15,15h40.69c8.28,0,15-6.72,15-15h0v-14.46c0-8.28-6.72-15-15-15h0ZM652.47,561.27c0,4.97-4.03,9-9,9h-40.69c-4.97,0-9-4.03-9-9v-14.87h58.65v.41l.04,14.46Z"/><path id="ai" class="as" d="M734,531.81h-40.7c-8.28,0-15,6.72-15,15v14.46c0,8.28,6.72,15,15,15h40.7c8.28,0,15-6.72,15-15h0v-14.46c0-8.28-6.72-15-15-15ZM743,561.27c0,4.97-4.03,9-9,9h-40.7c-4.97,0-9-4.03-9-9v-14.87h58.7v14.87Z"/></g><g id="aj"><rect class="as" x="500.67" y="535.48" width="44.66" height="36.04" rx="10.95" ry="10.95"/><path class="ar" d="M134.43,556.24c23.51,34.18,116,28.55,203.39,2.47s170.18-4.71,170.18-4.71"/></g></g><g id="ak"><path id="al" class="at" d="M764.48,68.15h-106.62c-4.75,0-9.35,1.66-13,4.7l-6.34,5.28,28.21-.26c-.14.99-.21,2-.21,3v6.13c0,3.98,3.22,7.2,7.2,7.2h90.73c4,0,7.25-5.68,7.25-12.68v-.67c.03-7.03-3.21-12.7-7.22-12.7Z"/><rect class="at" x="687.56" y="58.49" width="45.45" height="11.84"/><g id="am"><path class="at" d="M767.17,0h-112.47c-6.63,0-12,5.37-12,12v34.49c0,6.63,5.37,12,12,12h112.47c6.63,0,12-5.37,12-12V12c0-6.63-5.37-12-12-12ZM676.17,52.15c1.66,0,3,1.34,3,3s-1.34,3-3,3c-5.76,0-10.42-4.67-10.42-10.43V10.77c0-5.75,4.66-10.42,10.41-10.43,1.66,0,3,1.34,3,3s-1.34,3-3,3c-2.44,0-4.42,1.99-4.42,4.43v37c.03,2.42,2,4.37,4.42,4.38h.01ZM733,50.59c-9.51,0-17.25-9.1-17.25-20.29s7.75-20.3,17.25-20.3,17.25,9.1,17.25,20.28-7.72,20.31-17.25,20.31Z"/><path class="at" d="M733,16c-6.2,0-11.25,6.41-11.25,14.28s5,14.29,11.25,14.29,11.25-6.41,11.25-14.29-5.03-14.28-11.25-14.28Z"/></g><ellipse class="as" cx="700.79" cy="30.3" rx="6.04" ry="7.33"/></g></g><line id="an" class="ao" x1="3" y1="591.01" x2="1837.7" y2="591.01"/></g></g></g></svg>