<?xml version="1.0" encoding="UTF-8"?><svg id="a" xmlns="http://www.w3.org/2000/svg" viewBox="0 0 1523.22 673.47"><defs><style>.be,.bf{fill:none;}.be,.bf,.bg{stroke-linecap:round;stroke-linejoin:round;}.be,.bg{stroke:#11172b;stroke-width:6px;}.bf{stroke:#3a81f6;stroke-width:7px;}.bh{fill:#3a81f6;}.bi,.bg{fill:#11172b;}</style></defs><g id="b"><g id="c"><g id="d"><g id="e"><g id="f"><path class="bi" d="M959.63,0h-228.69c-27.31,0-49.45,22.14-49.45,49.45,0,0,0,0,0,0v167.74h18V49.74c0-14.4,12-26.07,26.9-26.07h51.17v10.88c.03,3.6,2.97,6.48,6.57,6.45.01,0,.03,0,.04,0h94.61c3.6.06,6.56-2.82,6.62-6.42h0v-10.91h51.16c14.86,0,26.9,11.67,26.9,26.07v181.26h17.71V46c0-21-17.69-38.18-39.45-38.18-1.66,0-3-1.34-3-3s1.34-3,3-3c25.06,0,45.45,19.82,45.45,44.18v185h21.9V49.45c0-27.31-22.13-49.44-49.44-49.45Z"/><rect class="bi" x="681.49" y="358.57" width="18" height="200.12"/><polygon class="bi" points="963.46 289.13 963.46 424.92 981.17 428.18 981.17 289.13 963.46 289.13"/><path class="bi" d="M981.18,607v-152.58l-17.71-2.82v163.4c0,14.4-12,26.07-26.9,26.07h-210.18c-14.22,0-25.86-10.7-26.82-24.25h-18c1.44,26,23.67,48.36,50,48.36l213.71-1.71c-.01-1.4.94-2.61,2.3-2.94,14.51-3.47,24.56-13.41,29.87-29.54,2.5-7.75,3.76-15.85,3.73-23.99Z"/><path class="bi" d="M987.17,289.12v141.73l10.91,11-10.91,7.23v157.74c.09,8.79-1.23,17.53-3.92,25.9-4.83,14.82-13.65,25.31-25.76,30.78h2.14c27.3,0,49.43-22.14,49.44-49.44v-324.94h-21.9Z"/><path class="bi" d="M945.41,664.17c.32,1.35,1.53,2.3,2.91,2.3.24,0,.47-.02.7-.08,2.91-.69,5.75-1.66,8.47-2.89h-12.16c0,.23.02.45.08.67Z"/><path id="g" class="be" d="M901.89,195.29c16.47,10.32,36.38,16.81,63.93,17.17"/><path id="h" class="be" d="M697.14,89.8c20.49-2.28,79.54-18.88,127.11,27.54,5.94,5.79,11.42,11.6,16.6,17.34"/><path id="i" class="be" d="M734.61,473.68c-12.46-1.34-25.02-1.32-37.47.06"/><path id="j" class="be" d="M965.82,572.37c-76.08-1-94-10.81-141.57-57.23-3.75-3.66-7.7-7.13-11.81-10.38"/></g><g id="k"><rect class="bf" x="768.65" y="134.68" width="131.27" height="131.27"/><rect class="bf" x="770.87" y="277.19" width="33.8" height="33.8"/><line class="bf" x1="804.67" y1="277.19" x2="770.87" y2="310.99"/><rect class="bf" x="817.02" y="277.19" width="33.8" height="33.8"/><line class="bf" x1="850.82" y1="277.19" x2="817.02" y2="310.99"/><rect class="bf" x="863.16" y="277.19" width="33.8" height="33.8"/><line class="bf" x1="896.97" y1="277.19" x2="863.16" y2="310.99"/><rect class="bf" x="736.94" y="350.5" width="199.8" height="69.29" rx="26.21" ry="26.21"/><rect class="bf" x="735.92" y="433.72" width="199.8" height="69.29" rx="26.21" ry="26.21"/><line class="bf" x1="897.6" y1="135.62" x2="768.65" y2="265.95"/></g></g><g id="l"><rect class="be" x="497.76" y="217.19" width="246.45" height="141.38" rx="21.86" ry="21.86"/><g id="m"><rect class="bh" x="589.05" y="270.4" width="8.13" height="11.14" rx="3.72" ry="3.72"/><rect class="bi" x="530.03" y="270.4" width="55.9" height="11.14" rx="5" ry="5"/><rect class="bi" x="530.03" y="322.13" width="60.96" height="11.14" rx="5" ry="5"/><rect class="bh" x="545.44" y="304.91" width="94.54" height="11.14" rx="5" ry="5"/><rect class="bh" x="645.28" y="304.91" width="51.07" height="11.14" rx="5" ry="5"/><rect class="bi" x="705.49" y="287.69" width="8.13" height="11.14" rx="3.72" ry="3.72"/><rect class="bi" x="530.03" y="287.66" width="97.76" height="11.14" rx="5" ry="5"/><rect class="bi" x="600.77" y="270.4" width="55.9" height="11.14" rx="5" ry="5"/><rect class="bh" x="632.17" y="287.62" width="68.96" height="11.2" rx="5" ry="5"/><g id="n"><path class="bi" d="M540.5,246.23l14.42-8.66c.22-.12.47-.18.72-.18.8.01,1.44.65,1.45,1.45,0,.52-.29,1.01-.74,1.27l-12.35,7.42,12.35,7.47c.45.26.74.75.74,1.27-.01.8-.65,1.44-1.45,1.45-.25,0-.5-.06-.72-.18l-14.42-8.66c-.72-.36-1.01-1.24-.65-1.96.14-.28.37-.51.65-.65v-.04Z"/><path class="bi" d="M572,232c.26-.27.62-.42,1-.42.8,0,1.45.65,1.45,1.45h0c0,.21-.04.42-.12.62l-11.6,29c-.34.73-1.2,1.04-1.92.71-.16-.07-.3-.17-.43-.3-.27-.26-.42-.62-.42-1,0-.21.04-.43.13-.62l11.59-29c.08-.16.19-.31.32-.44Z"/><path class="bi" d="M594.77,247.53c0,.55-.31,1.05-.79,1.31l-14.43,8.66c-.22.12-.47.18-.72.18-.8-.01-1.44-.65-1.45-1.45,0-.52.29-1.01.74-1.27l12.4-7.43-12.4-7.42c-.45-.26-.74-.75-.74-1.27.01-.8.65-1.44,1.45-1.45.25,0,.5.06.72.18l14.45,8.66c.47.26.77.76.77,1.3Z"/></g></g></g><g id="o"><path id="p" class="bi" d="M1241.91,550.77c.47-14.17-7.29-27.33-19.91-33.77l-31.21-17.1-2.36,10.69c-2.82,11.7-14.59,18.9-26.29,16.08-11.4-2.75-18.58-14.02-16.25-25.51l3.12-14.07c-4.03-2.67-7.04-6.63-8.52-11.24-.27-.89-.5-1.81-.69-2.74-9.37-2.81-19.38-2.56-28.6.71l-46.38,16.46-59.4-63.12-40.42,42.36,75.45,86.7c4.87,5.61,12.72,7.58,19.66,4.95l12.84-5.76-22.63,109.33,20.71.4c-5.46-1-2.75-5.39.85-6.69,2.3-.83,5.6-2.25,8.37-3.36-3.93,1.21-7.72,2.82-11.33,4.79-3.58,1.44-7.64-1-8-2.2-.25-.75,1.07-2.34,3.55-4.12l-.94.44c-6.92,1.67-10.2,1.26-8.37-2.46,1.29-2.65,18.8-11.7,22.23-12.72s33.35-5.33,33.35-5.33l7.67,31.79,105.62.65c10.86,0,19.64-7.32,19.46-18.17l-1.58-96.99ZM1188.56,618.91l-72.37,16.09c-.21.05-.43.07-.65.07-1.66,0-3-1.34-3.01-2.99,0-1.41.98-2.63,2.36-2.94l69.84-15.5-2.59-36.14c-.12-1.66,1.13-3.1,2.79-3.21,1.66-.12,3.1,1.13,3.21,2.78l2.78,38.72c.09,1.48-.91,2.81-2.36,3.12h0Z"/><g id="q"><path class="be" d="M970.39,450.23s-16.87-.5-27.92-7c-6.6-3.85-15.14-9.13-15.55-11.42-.78-4.27,9.64.1,11.3.66"/><path class="be" d="M979.86,458.13l-4.93-6.88c-9.39-1.51-16.08-3.91-20.58-6.35-5.83-3.17-23.59-17.88-23.93-19.82-.9-5.16,7.9-5,14.38,3.22"/><path class="be" d="M958.44,438.27s-9.06-4.71-13-9.47-6.72-8.5-6-9.45,5.89-.8,8.61,1.93c3.45,4.92,14,10.16,14,10.16-1.16-.17-8-4.87-11.36-8s-4.85-8.89,4.35-4.24c0,0,9.8,5.27,13.43,6.67,0,0,15.39,1.94,20.35,7.11h0c1,1,3.79,3.91,7.81,7.94"/></g><g id="r"><path class="be" d="M1063.55,654c-6.92,1.67-10.2,1.26-8.37-2.46,1.29-2.65,18.8-11.7,22.23-12.72s33.35-5.33,33.35-5.33l7.67,31.79h-43.33c-10.49.67-7.46-5.29-3.18-6.83s12.19-5.23,13.37-4.93c0,0-11.29,3.22-16.33,6.36-3.58,1.44-7.64-1-8-2.2s2.91-4.25,8.4-7c4.09-1.99,8.3-3.73,12.6-5.22"/></g><g id="s"><path id="t" class="be" d="M1197.92,474.15l-9.45,36.41c-2.6,11.74-14.23,19.16-25.97,16.56,0,0-.02,0-.03,0h0c-11.75-2.6-19.16-14.22-16.57-25.97,0-.01,0-.02,0-.03l2.89-13"/><path id="u" class="be" d="M1210.48,451.9s17.41-33.92-16.73-52c-3.18-1.69-25.16-12.8-35.71,5-7,11.88-12.18,25.61-15.41,36.52,0,.06-6.39,20.51-2.1,34.47s22.46,18.79,33.72,16.33,13.94-4.78,18.75-10.51,17.44-29.71,17.44-29.71l.04-.1Z"/><path id="v" class="bi" d="M1142.63,441.35c3.23-10.91,8.36-24.64,15.41-36.52.32-.55.66-1.07,1-1.56-5.74-4.47-15,4.76-21.42,23.73-3.32,9.82-12.39,14.75-12.39,14.75,6.93,6.07,13.17,3.44,17.28,0,.08-.25.12-.39.12-.4Z"/><polyline id="w" class="be" points="1158.78 435.06 1151.43 453.54 1157.49 455.76"/><ellipse id="x" class="bi" cx="1152.07" cy="433.06" rx="2.97" ry="1.92" transform="translate(299.87 1321.07) rotate(-66.78)"/><ellipse id="y" class="bi" cx="1168.86" cy="440.65" rx="2.97" ry="1.92" transform="translate(486.57 1487.02) rotate(-77.55)"/><path id="z" class="be" d="M1183.54,435.06c-.99-3.05-3.56-5.33-6.71-5.93"/><path id="aa" class="be" d="M1160.78,421.49s-5.34-4.89-9.35-2"/><path id="ab" class="bh" d="M1246.94,441.87l-18.43-9.35c2.31-13.75.89-35-24.88-47-40.27-18.71-55,21.63-55,21.63l92.27,46.56c3.21,1.79,7.27.63,9.06-2.58,1.79-3.21.63-7.27-2.58-9.06-.16-.09-.32-.17-.48-.24l.04.04Z"/><path id="ac" class="bi" d="M1154.45,469.3c-4.12-8.37,15.08-2.71,15.08-2.71,0,0-5.43,19.3-15.08,2.71Z"/><path id="ad" class="bi" d="M1226.33,446.4l-38.93-19.65c-4.52,14.08-10.19,42.38,13.93,49.79,0,0,18.85,6.25,24.26.06,0,0-12.93-9.49-10-17.24,0,0,13.25,19.59,28.78,9.18,0,0-18.37-5.89-18.04-22.14Z"/></g></g><g id="ae"><g id="af"><rect class="be" x="915.42" y="230.97" width="225.5" height="58.15" rx="21.86" ry="21.86"/><line class="be" x1="944.4" y1="254.05" x2="1113.47" y2="254.05"/><line class="be" x1="944.4" y1="268.47" x2="1024.63" y2="268.47"/></g><g id="ag"><rect class="be" x="624.2" y="558.69" width="225.5" height="58.15" rx="21.86" ry="21.86"/><line class="be" x1="653.17" y1="581.77" x2="822.24" y2="581.77"/><line class="be" x1="653.17" y1="596.19" x2="733.41" y2="596.19"/></g><g id="ah"><rect class="be" x="363.63" y="107.38" width="225.5" height="58.15" rx="21.86" ry="21.86"/><line class="be" x1="392.61" y1="130.46" x2="561.68" y2="130.46"/><line class="be" x1="392.61" y1="144.88" x2="472.85" y2="144.88"/></g></g><g id="ai"><g id="aj"><path id="ak" class="be" d="M379.08,391.64c-31.76,9.14-38.8,22-34.91,34.59-12.74,7.65-38.82,26.4-62.14,62.54-32.35,50.13,72,129.37,90.39,129.37s148.07-50.66,148.07-50.66l7.62-23.08c11-33.19,1.44-69.75-24.4-93.31l-.61-.55c-14-12.53-27.39-28.13-40.39-34.29-1.81-9.39-6.89-19.42-20.32-25"/><path id="al" class="bi" d="M459.9,415c1.41,7.26.86,14.16.68,18.35-.75,17.53-7.35,27-9.33,33.54,12.79-7.63,24.61-25.18,30.37-36.66-3.62-3.43-15.34-12.08-21.72-15.23Z"/><path id="am" class="bi" d="M390,468.26c-6.33-2.91-38.49-23.67-43.92-43.88-6.51,3.49-16.65,9.59-22.95,17.11,7.29,4.41,48.35,28.82,66.51,27.51l.73-.06c-.17-.27-.29-.5-.37-.68Z"/><path id="an" class="bh" d="M439.4,468.44c6.92-20.16,1.66-42.59-3.19-49.18-3.04,12.02-8.83,23.17-16.9,32.58-11.78-13.42-25.3-25.21-40.19-35.06l.58-.67-1.36.06-7.34,7.56s35,26.62,46.39,90.76c7.4,41.67,11.2,80.81,11.2,80.81l21.7-1.16s-18.43-103.77-10.89-125.7Z"/><g id="ao"><path id="ap" class="be" d="M369.59,371.66c-3.31,1.45-9.53,5.38-5.7,13.52,3.43,7.29,10.19,5.09,14.23,2.89"/><path id="aq" class="be" d="M431.9,336.5c7.24,18.52,9.75,40.32,10,50.5"/><path id="ar" class="be" d="M386.35,403.68l-.29,5.13-6.94,8h0c14.89,9.85,28.41,21.64,40.19,35.06,10.12-11.83,16.61-26.32,18.69-41.75"/><path id="as" class="be" d="M378.7,371.74c2.6,1.6,11.21,12.37,14,17.71,0,0,12.68-8.19,32.45-13.38,0,0,10.88-2.45,15.51-2.21,0,0,4,20.31-2.18,32.87s-25.48,14.27-35.74,10.13-12.42-6.72-16.09-12.91-15.14-29.81-15.14-29.81l7.19-2.4Z"/><path id="at" class="bi" d="M374.22,377.4s-8.26-7.76-12.93-16.8c-4.48-8.46-2.48-18.9,4.82-25.1,6.16-5.11,12-3.74,12-3.74,0,0-10.55-10.76-2.17-24.76,2.97-4.92,7.83-8.39,13.44-9.62,7.79-1.85,15.93,1.1,20.74,7.5,0,0,8-30.35,41.72-21.89,3.4.85,7.89,4.47,10.26,7.06,14.35,15.73-12.83,45.28-29.33,51.16-18.11,6.46-29.74,6.07-36.85,3,5.08,1.62,6.98,30.65-21.7,33.19Z"/><polyline id="au" class="be" points="424.69 367.97 431.02 384.97 424.47 384.91"/><ellipse id="av" class="bi" cx="432.58" cy="366.14" rx="1.85" ry="2.86" transform="translate(-75.2 114.46) rotate(-13.88)"/><ellipse id="aw" class="bi" cx="416.92" cy="369.94" rx="1.85" ry="2.86" transform="translate(-19.4 23.09) rotate(-3.1)"/><path id="ax" class="be" d="M404.56,363.23c1.41-2.74,4.21-4.5,7.29-4.58"/><path id="ay" class="be" d="M426.36,350.4s5.83-3.81,9.19-.46"/><path id="az" class="bg" d="M424.43,396.9c-5.75-.54-7.72-3.42-7.72-3.42l9.94-.65s1.59,3.98-2.22,4.07Z"/></g><g id="ba"><path class="be" d="M393.89,463.46s9.75,22.62,11.3,38.59"/><path class="be" d="M446.26,464.49s1.73,19.72,3.44,35.68"/><path class="be" d="M326.86,511.65s10.37-11.44,27.3-.92l15.1-13.42"/><path class="be" d="M392.29,532.39c-1.83-.92-39.5-22.42-39.5-22.42"/><line class="be" x1="485.72" y1="509.53" x2="478.22" y2="492.48"/></g><path id="bb" class="bi" d="M390.43,598.87s-37.54-15.6-83.95-47.77-76,17.65-63.49,38c11,18,72.79,79.71,72.79,79.71l210.34-1.71s49.42-62.19,57.18-71.93c26.23-32.94,4.56-50.36-24.27-52.88-27.14-2.38-100.38,51-109.38,57.85l-59.22-1.27Z"/></g><path id="bc" class="bh" d="M519.09,507.77h-135.17c-1.77,0-3.32,1.21-3.72,2.94l-18.31,77.52h-34s-3.07,15.9,14.88,15.9h19c.35.1.72.16,1.09.16h135.24c1.77,0,3.31-1.22,3.72-2.94l21-88.88c.48-2.06-.8-4.12-2.86-4.6-.29-.07-.58-.1-.87-.1Z"/></g><line id="bd" class="be" x1="1520.22" y1="663.47" x2="3" y2="670.47"/></g></g></g></svg>