<?xml version="1.0" encoding="UTF-8"?><svg id="a" xmlns="http://www.w3.org/2000/svg" viewBox="0 0 1585.59 638.56"><defs><style>.aj{stroke:#11172b;}.aj,.ak{fill:none;stroke-linecap:round;stroke-linejoin:round;stroke-width:6px;}.ak{stroke:#3a81f6;}.al{fill:#3a81f6;}.am{fill:#11172b;}</style></defs><g id="b"><g id="c"><g id="d"><g id="e"><g id="f"><g id="g"><path class="ak" d="M326.67,274.79c-28.67-26.79-35.49-26.36-42.85-64.79-9.39-49.08-59.2-68.9-84.31-40.44s5.08,83,14.78,94.87c7.41,9.09,4.07,53.93,16.18,97.2"/></g><g id="h"><path class="ak" d="M335.56,409.91c-14-15.13-29.82-27.07-47.5-33-63.91-21.44-64.22-7.57-91.41-39.6s-71.5-26.11-77.85,5,38.15,58.56,50.12,63.29,36.08,61.84,80.08,85.91,65.77-23.29,82.51,9.78"/></g><path class="ak" d="M437.2,104.74c-5.89-4.44-13.92-7.41-24.55-8.42-52.81-5-63.71,48.44-65.42,93.72s6.72,61.55-19.06,85.65c-25.78,24.1,16.17,56.71,12.6,80.6-2.77,18.64-18.47,61.71,20.42,146.92"/><path class="ak" d="M437.2,503.21v-153.27c-34.48,35.99-45.2,101.06-48.95,153.27h48.95Z"/></g><path id="i" class="aj" d="M436.29,503.21h-120.92c-7.77-.13-14.17,6.06-14.31,13.83-.02,1.07.08,2.13.31,3.17l25.77,115.35"/></g><g id="j"><rect id="k" class="aj" x="437.2" y="3" width="763.33" height="631.36"/><g id="l"><rect class="aj" x="871.24" y="474.86" width="42.82" height="66.77"/><rect class="aj" x="938.38" y="446.76" width="42.82" height="94.88"/><rect class="aj" x="1005.52" y="402.33" width="42.82" height="139.31"/><rect class="al" x="1072.66" y="363.96" width="42.82" height="177.68"/><path id="m" class="al" d="M1129.94,272.77c-.67-.58-1.56-.83-2.44-.7l-28,4.47c-1.63.28-2.74,1.83-2.46,3.46.28,1.63,1.83,2.74,3.46,2.46l18.27-2.91-54.67,63.45-22.34-21.45c-.59-.57-1.4-.87-2.22-.83-.82.03-1.59.39-2.13,1l-73.17,85-21.24-15.89c-1.18-.88-2.82-.78-3.88.24l-65.73,63c-1.16,1.18-1.15,3.08.03,4.24,1.13,1.12,2.94,1.16,4.12.09l63.9-61.26,21.45,16.07c1.26.95,3.04.75,4.07-.44l72.93-84.74,22.34,21.45c.59.57,1.4.87,2.22.83.82-.03,1.59-.39,2.13-1l58.29-67.72-.38,23.7c-.03,1.66,1.29,3.02,2.95,3.05.02,0,.03,0,.05,0h0c1.64,0,2.97-1.31,3-2.95l.48-30.29c.02-.89-.36-1.74-1.03-2.33Z"/></g><g id="n"><g id="o"><line class="aj" x1="514.26" y1="472.49" x2="698.27" y2="472.49"/><line class="aj" x1="514.26" y1="500.49" x2="649.7" y2="500.49"/><line class="aj" x1="510.26" y1="531.92" x2="606.27" y2="531.92"/><line class="aj" x1="719.42" y1="472.49" x2="798.85" y2="472.49"/></g><g id="p"><polygon class="al" points="601.49 411.38 622.7 431.33 622.7 391.02 601.49 411.38"/><polygon class="al" points="570.98 432.37 592.78 411.43 570.98 390.92 570.98 432.37"/><polygon class="al" points="679.08 383.98 630.08 383.98 654.83 407.27 679.08 383.98"/><path class="al" d="M597.16,415.55l-24.85,23.86h50.23l-25.38-23.86Z"/><polygon class="al" points="628.7 432.37 650.5 411.43 628.7 390.92 628.7 432.37"/><polygon class="al" points="510.26 388.1 510.26 435.25 535.07 411.43 510.26 388.1"/><path class="al" d="M539.44,415.55l-24.85,23.86h50.23l-25.38-23.86Z"/><polygon class="al" points="563.65 383.98 514.64 383.98 539.4 407.27 563.65 383.98"/><polygon class="al" points="680.41 431.33 680.41 391.02 659.21 411.38 680.41 431.33"/><polygon class="al" points="543.78 411.38 564.98 431.33 564.98 391.02 543.78 411.38"/><path class="al" d="M654.88,415.55l-24.88,23.86h50.22l-25.34-23.86Z"/><polygon class="al" points="621.37 383.98 572.36 383.98 597.12 407.27 621.37 383.98"/><polygon class="al" points="738.13 383.98 686.41 383.98 686.41 439.41 686.41 439.41 738.13 439.41 738.13 439.41 738.13 383.98"/><polygon class="al" points="798.85 383.98 744.13 383.98 744.13 439.41 744.13 439.41 798.85 439.41 798.85 383.98"/><path class="al" d="M680.25,439.41l.18.13v-.13h-.18Z"/></g></g><g id="q"><rect class="aj" x="1056.68" y="180.5" width="31" height="31"/><rect class="aj" x="975.32" y="124.32" width="118.54" height="35.72"/><line class="aj" x1="975.32" y1="211.53" x2="1035.62" y2="211.53"/><line class="aj" x1="975.32" y1="196.88" x2="1035.62" y2="196.88"/><line class="aj" x1="975.32" y1="182.22" x2="1035.62" y2="182.22"/></g><g id="r"><line class="aj" x1="878.12" y1="295.31" x2="1042.82" y2="295.31"/><line class="aj" x1="878.12" y1="309.47" x2="975.32" y2="309.47"/></g><g id="s"><path class="al" d="M709.16,210l113-57.33c9.01,17.77,13.69,37.41,13.68,57.33,0,69.49-57.18,126.68-126.68,126.68-38.59-.01-75.07-17.6-99.11-47.79l99.11-78.89Z"/><line class="aj" x1="806.26" y1="113.23" x2="910.9" y2="113.23"/><line class="aj" x1="910.9" y1="127.34" x2="855.11" y2="127.34"/><line class="aj" x1="910.9" y1="141.55" x2="873.82" y2="141.55"/><line class="aj" x1="778.91" y1="225.51" x2="914.05" y2="225.51"/><line class="aj" x1="914.05" y1="236.6" x2="888.76" y2="236.6"/><line class="aj" x1="632.35" y1="101.55" x2="551.79" y2="101.55"/><line class="aj" x1="551.79" y1="112.98" x2="567.96" y2="112.98"/><path class="ak" d="M590,291.23l95.48-75.73-121.88,1.36c.26,27.04,9.55,53.22,26.4,74.37Z"/><path class="ak" d="M577,160.62c-5.46,14.06-8.26,29.01-8.24,44.09v1.63l121.78-1.63-113.54-44.09Z"/><path class="ak" d="M773.87,87.42l-60.07,105.69,109-54.14c-10.85-21.65-27.88-39.59-48.93-51.55Z"/><path class="am" d="M759.79,90.28c-18.2-10.44-38.81-15.97-59.79-16.06h-2c-49.67.5-94.06,31.09-112.21,77.33l113.48,44.45,60.52-105.72Z"/><line class="aj" x1="586.35" y1="237.05" x2="505.79" y2="237.05"/><line class="aj" x1="505.79" y1="248.48" x2="534.9" y2="248.48"/></g></g><g id="t"><g id="u"><path class="aj" d="M1116.18,583.08c-7.04.45-14.05,1.26-21,2.45-13.6,2.38-36.71,6.34-39,9.85-3.68,5.57,4.55,9.28,13.33,9"/><path class="aj" d="M1080.93,613.4c-13.36,3.34-19.76,2.72-16.32-4.29,2.38-4.85,34.53-21.48,40.83-23.35s61.26-9.8,61.26-9.8l14.09,58.4h-79.59c-19.26,1.23-13.71-9.71-5.84-12.54s22.39-9.61,24.56-9.06c0,0-20.74,5.92-30,11.69-6.58,2.64-14-1.93-14.74-4s5.35-7.81,15.43-12.95c7.52-3.66,15.25-6.87,23.15-9.61"/></g><path id="v" class="am" d="M1407.6,418.26c.9-26.17-13.41-50.5-36.71-62.43l-37.75-20.26-4.14,18.57c-4.49,20.23-24.52,32.99-44.75,28.51l-4.87-1.08c-20.23-4.48-33-24.51-28.52-44.74l6.27-28.29c-7.19-5-12.92-11.83-15.64-20.65-.18-.57-.33-1.16-.49-1.75l-37.59-20.14-.14,291.73,102-20.92-4.92-68.49c-.12-1.66,1.13-3.1,2.79-3.21s3.1,1.13,3.21,2.79l5.11,71.12c.11,1.5-.92,2.85-2.39,3.15l-105.76,21.7v.77l-57.92,10.55c11.36,2.16,24,58.66,24,58.66h205.38c19.8,0,35.86-16.05,35.86-35.86,0-.2,0-.4,0-.59l-3.03-179.13Z"/><g id="w"><path id="x" class="aj" d="M1341.87,293.14l-12.84,61c-4.49,20.23-24.52,32.99-44.75,28.51l-4.87-1.08c-20.23-4.48-33-24.51-28.52-44.74l6.27-28.29"/><path id="y" class="aj" d="M1370,244s32-62.3-30.74-95.6c-5.84-3.11-46.21-23.51-65.59,9.15-13,21.82-22.37,47-28.29,67.08,0,.11-11.76,37.67-3.86,63.31s41.24,34.51,61.92,30,25.61-8.78,34.46-19.3,32-54.52,32-54.52l.1-.12Z"/><path id="z" class="am" d="M1245.38,224.58c5.92-20,15.34-45.26,28.29-67.08.6-1,1.21-2,1.85-2.87-10.55-8.21-27.59,8.75-39.36,43.6-6.08,18-22.74,27.09-22.74,27.09,12.72,11.14,24.18,6.3,31.74,0,.13-.47.21-.73.22-.74Z"/><polyline id="aa" class="aj" points="1275.03 213.02 1261.53 246.97 1272.67 251.05"/><ellipse id="ab" class="am" cx="1262.71" cy="209.34" rx="5.45" ry="3.53" transform="translate(572.49 1287.23) rotate(-66.78)"/><ellipse id="ac" class="am" cx="1293.51" cy="223.26" rx="5.45" ry="3.53" transform="translate(796.63 1438.22) rotate(-77.55)"/><path id="ad" class="aj" d="M1320.52,213c-1.81-5.6-6.54-9.78-12.32-10.89"/><path id="ae" class="aj" d="M1278.7,188.09s-9.81-9-17.17-3.7"/><path id="af" class="al" d="M1437,225.53l-33.86-17.18c4.25-25.24,1.64-64.25-45.7-86.24-74-34.37-101,39.72-101,39.72l169.5,85.53c5.95,3.21,13.37.99,16.58-4.96,3.21-5.95.99-13.37-4.96-16.58-.19-.1-.37-.2-.56-.29Z"/><path id="ag" class="aj" d="M1289.88,268.44s-8.64,9.79-23.86,1.94"/><path id="ah" class="am" d="M1399.11,233.85l-71.5-36.09c-8.3,25.86-18.72,77.84,25.58,91.46,0,0,34.62,11.48,44.57.1,0,0-23.76-17.43-18.37-31.67,0,0,24.33,36,52.85,16.87,0,0-33.76-10.82-33.13-40.67Z"/></g></g><line id="ai" class="aj" x1="3" y1="634.36" x2="1582.59" y2="634.36"/></g></g></g></svg>