<?xml version="1.0" encoding="UTF-8"?><svg id="a" xmlns="http://www.w3.org/2000/svg" viewBox="0 0 1598.1 758.02"><defs><style>.cn,.co,.cp,.cq,.cr{fill:none;}.cn,.co,.cp,.cq,.cr,.cs,.ct,.cu{stroke-linecap:round;stroke-linejoin:round;}.cn,.cr,.cu{stroke-width:6px;}.cn,.cs,.ct,.cu{stroke:#11172b;}.co{stroke-width:8px;}.co,.cp,.cq,.cr{stroke:#3a81f6;}.cp{stroke-width:4.5px;}.cq{stroke-width:4.5px;}.cv{fill:#c084fc;}.cw{fill:#968bb4;}.cx{fill:#a78bfa;}.cy{fill:#3a81f6;}.cz,.cs,.ct,.cu{fill:#fff;}.cs{stroke-width:6px;}.ct{stroke-width:6px;}.da{fill:#11172b;}</style></defs><g id="b"><g id="c"><rect id="d" class="cu" x="73.32" y="497.45" width="1455.07" height="257.25"/><g id="e"><path id="f" class="cy" d="M943.73,88.22h-324.23c-5.41.01-9.8,4.38-9.84,9.79v199.55c.02,5.43,4.41,9.82,9.84,9.83h126.67l-19.12,73.27h119.38l-18.43-73.27h115.73c5.43-.01,9.82-4.4,9.84-9.83V98.01c-.04-5.41-4.43-9.78-9.84-9.79Z"/><rect id="g" class="cz" x="626.12" y="101.39" width="297.99" height="186.83" rx="11" ry="11"/><g id="h"><ellipse class="cn" cx="785.11" cy="340.92" rx="14.43" ry="15.06"/><line class="cn" x1="817" y1="307.65" x2="832.96" y2="378.59"/><line class="cn" x1="746.48" y1="307.22" x2="827.27" y2="307.22"/><path id="i" class="cn" d="M926.72,91.28c5.7.1,10.25,4.78,10.19,10.48v195.05"/></g><g id="j"><rect class="cx" x="738" y="142.19" width="9.71" height="13.88" rx="3.31" ry="3.31"/><rect class="cv" x="667.53" y="142.19" width="66.74" height="13.88" rx="4.54" ry="4.54"/><rect class="cv" x="667.53" y="206.65" width="72.78" height="13.88" rx="4.54" ry="4.54"/><rect class="cx" x="685.93" y="185.19" width="112.88" height="13.88" rx="4.54" ry="4.54"/><rect class="cx" x="805.12" y="185.19" width="60.97" height="13.88" rx="4.54" ry="4.54"/><rect class="cv" x="877.02" y="163.73" width="9.71" height="13.88" rx="3.31" ry="3.31"/><rect class="cv" x="667.53" y="163.69" width="116.72" height="13.88" rx="4.54" ry="4.54"/><rect class="cv" x="751.98" y="142.19" width="66.74" height="13.88" rx="4.54" ry="4.54"/><rect class="cy" x="789.47" y="163.65" width="82.33" height="13.96" rx="4.57" ry="4.57"/></g></g><g id="k"><path id="l" class="da" d="M618.83,376.91l15.34-25.63s-14.63-64.89-23.81-97.13c-8.22-28.89-27.4-36-41.73-31.89l-102,17.27c-.75-.08-1.5-.14-2.23-.16-17.86-.4-47.44,64.28-54.35,101.95,9.29-3,30.19-6.14,56.76-2.55.78-1.56,3.63-6.31,7.38-13,.44.76.87,1.5,1.3,2.22,6.3,10.5,23.44,46.13,34.94,49.74l108.47,3.38-1.32-4.2c.42.03.83.03,1.25,0Z"/><g id="m"><path class="cu" d="M512.26,189.54l-3,1.94s-17.78,9.67-23.37-8.29c-4.23-13.63,8.84-17.92,15.4-19.19"/><path class="cu" d="M553.61,213.83l-6.81,15.12,10.13-2.22c1.1,2,14.23,30.31-17.57,37.58-20.87,4.76-45-12.18-55.93-27.61l17.64-3.2,14.39-34.67,38.15,15Z"/><path class="cu" d="M576,155.63c2.42,8.24,9.35,47.35-15.73,57s-48.61-9.77-57.53-33.85-3.33-47.63,12.41-54.14,43.23-28.63,60.85,30.99Z"/><path class="da" d="M550.33,187.38c3.78.69,7.69.14,11.13-1.58.79-.39,1.74-.07,2.13.72.08.15.13.31.15.48.53,3.09.38,8.47-6.38,10.1-7.06,1.7-8.56-4.5-8.86-8-.07-.89.59-1.66,1.48-1.73.12,0,.23,0,.35.01Z"/><polyline class="cn" points="554.68 176.25 562.45 174.22 551.7 144.43"/><path class="cn" d="M528.81,154.01s3.89-7.4,9.9-4.67"/><path class="cn" d="M552.83,136.49s4.85-6.78,10.43-3.22"/><ellipse class="da" cx="544.85" cy="163.35" rx="2.66" ry="4.22" transform="translate(-21.74 113.19) rotate(-11.63)"/><ellipse class="da" cx="570.41" cy="158.25" rx="2.66" ry="4.22" transform="translate(-20.19 118.24) rotate(-11.63)"/><ellipse class="cq" cx="535.04" cy="162.83" rx="16.89" ry="22.84" transform="translate(-19.7 91.8) rotate(-9.63)"/><ellipse class="cq" cx="578.83" cy="154.41" rx="16.89" ry="22.84" transform="translate(-17.67 99.01) rotate(-9.63)"/><line class="cp" x1="561.25" y1="151.62" x2="550.88" y2="153.59"/><line class="cp" x1="517.72" y1="157.76" x2="494.25" y2="165.67"/><path id="n" class="da" d="M583.31,110.71c-19.14-39.21-51.95-16.9-73.92,5.42-17.09-.29-38.8,17-43.43,30.91-5.57,16.71-3.63,40.73,8,56.12,22.37,24.6,41.49,19.33,55.2,7.5-7.95-4.2-14.87-11-20.09-19.08-2,1-17.93,8.46-23.17-8.39-2.25-7.25.39-11.86,4.34-14.77,1.56.48,3.62.24,6.3-1,13.14-6,17.93-20.93,19.67-30.33l62.4-16.2c3.88-1.01,6.2-4.97,5.19-8.84-.12-.46-.29-.91-.49-1.34Z"/></g><g id="o"><path class="cu" d="M550.64,351.01c-26.65-1.31-87.95-9.84-87.95-9.84l1-2.74c-22.24-2.61-40.19-.56-50.19,2-3.09,8.76-4.32,16.28-2.62,21.28,2.23,6.61,9.8,12.19,16.7,13.19,57.41,8.33,125.72,2.09,125.72,2.09l19.36-14.84s-20.83-11.14-22.02-11.14Z"/><path class="cu" d="M544.82,351.01c8.99-.3,18,.2,26.9,1.51,8.26,1.27,22.31,3.4,23.72,5.29,3.32,4.45-9.33,6.68-15.31,3"/><path class="cu" d="M575,366.18c11.72,3.12,17.84,3.55,15.33-1-1.45-2.6-21-11.55-24.82-12.55s-24.72-2.35-24.72-2.35"/><path class="cu" d="M560.4,359.15c4.78,1.46,9.48,3.19,14.08,5.17,6.13,2.76,9.81,5.82,9.38,7s-5,3.59-9,2.17c-5.62-3.1-18.24-6.28-18.24-6.28,1.32-.3,10.11,3.33,14.93,4.87s8.69,6.15-3,5.49l-17.64-.56"/></g><g id="p"><path class="cu" d="M708.66,274.21s18.68-.55,30.91-7.7c7.29-4.26,16.74-10.11,17.2-12.63.86-4.74-10.67.1-12.5.72"/><path class="cu" d="M721.89,261.01s10-5.22,14.42-10.49,7.43-9.4,6.61-10.45-6.51-.89-9.53,2.13c-3.81,5.44-15.49,11.24-15.49,11.24,1.29-.19,8.86-5.39,12.57-8.85s5.37-9.85-4.81-4.7c0,0-10.84,5.83-14.86,7.39,0,0-17,2.14-22.52,7.86h0c-3.7,3.86-32.57,33.29-54.22,51.83-12.52,8.1-46.8,67.82-14.22,68.08,6.74.25,15.42-4.18,18.87-9.11l64.93-90.57c10.39-1.67,17.8-4.33,22.78-7,6.45-3.51,26.1-19.79,26.47-21.93,1-5.71-8.73-5.54-15.91,3.57"/></g><g id="q"><ellipse class="da" cx="480.52" cy="217.41" rx="28.77" ry="25.04" transform="translate(55.82 530.14) rotate(-60.71)"/><ellipse class="da" cx="511.41" cy="240.85" rx="20.89" ry="18.18" transform="translate(187.49 704.12) rotate(-80.26)"/><ellipse class="da" cx="528.9" cy="271.3" rx="18.57" ry="16.16" transform="translate(4.96 552.05) rotate(-55.34)"/><ellipse class="da" cx="544.62" cy="295.8" rx="15.35" ry="13.36" transform="translate(-62.74 419.17) rotate(-39.99)"/><path class="da" d="M547.57,329.53c6.66,3.52,7.74,8.25,7.22,12-.15,1.06.59,2.03,1.64,2.18.55.08,1.1-.09,1.53-.45,7.62-6.87,19.29-20.22,9.69-30.94-4.53-5.06-12.69-5.67-18.84-.85s-7.24,14.88-1.24,18.06Z"/><line class="co" x1="493.48" y1="241.11" x2="504.31" y2="224.77"/><line class="co" x1="515.29" y1="263.84" x2="528.8" y2="254.18"/><line class="co" x1="536.04" y1="285.41" x2="540.66" y2="283.11"/><line class="co" x1="549.86" y1="310.21" x2="554.48" y2="307.91"/></g><g id="r"><path class="cy" d="M527.16,644.31l-20.8,67.61s36.59,9,32.75,40.07l-90.11-.46,25.78-115.41,52.38,8.19Z"/><path class="cy" d="M649.55,641.76l-21.5,69.82s37.86,9.52,33.88,41.76l-93.43-.48,26.71-119.59,54.34,8.49Z"/><path class="cv" d="M621,383.51h-62.75l-2.3-3.64-24.45,3.64h-11l-.33,1.69-107.88,16.08c-.78,2.74-27.73,50.07-2.13,83.85,10.24,13.52,46.74,17,86.84,16.31l-37.37,187.57h95.74l26.69-115.87-15.92,116.55h95.74l8.12-267.39s0-42.29-49-38.79Z"/></g></g><g id="s"><g id="t"><path id="u" class="da" d="M247.1,597.01l-19.78,109.6.44,48.47h22.92l1.32-47.92s9.29,46.87,41.31,49,59.69-6.67,59.47-7.92c-.1-.63,1-10.06,2-19.2.94-8-6.68-15.76-14.88-15.29-12.31.72-28.46-.26-38.26-8.42-17.5-14.59,7.65-111,7.65-111l-62.19,2.68Z"/><path id="v" class="da" d="M364.64,601.33l1.36,153.75h22.91l1.36-47.92s9.3,46.87,41.32,49,59.68-6.67,59.47-7.92c-.11-.63,1-10.06,2-19.2.94-8-6.69-15.76-14.89-15.29-12.31.72-28.45-.26-38.25-8.42-17.5-14.59-15.28-120.62-15.28-120.62l-60,16.62Z"/></g><path id="w" class="cy" d="M341.92,383.73l7.23-.74c21,8.52,45,2.74,66.6-10.31-2.73-2.27-7.66-8.22-7.66-11.45,0-20.84,4.46-39.72,20.49-64l-32.07,20.54s-13.46-21-25.63-43.26c-1.24-15.1-4.33-28.44-10.39-37.2-18.62-22.11-60.56-19.43-60.56-19.43l-69.32-5.2-.44-.24c-12.87,0-30.4,13.71-32.32,28.57-3.58,27.65,5.13,64.44,8.84,96.33-.65,3.28-1.17,5.88-1.54,7.6,0,0-72.9,101.39-21.9,152.43.27.4,80.12-.53,80.12-.53l-32,179.54,198.35,3.63s21.63-179.29,17.14-199.17c-9.1-40.32-104.94-97.11-104.94-97.11Z"/><g id="x"><g id="y"><path class="cr" d="M277.85,211.79c-6.39.79-12.79-6.75-14.37-17-.89-4.92-.28-10,1.73-14.58"/><path class="cr" d="M366.16,208.68c-6.39.79-12.79-6.75-14.37-17-.89-4.92-.28-10,1.73-14.58"/></g><g id="z"><path class="da" d="M271,107.01c12.28-11.61,14.85-64.94-26.05-95.5-41.4-30.91-67.83,9.09-73.52,19.5s-7.65,37.26,27.43,58.15,58.14,31.14,72.14,17.85Z"/><path class="cy" d="M293.41,127.76l-.78.65c-4.77,3.84-11.7,3.31-15.83-1.2l-11.55-12.59c-3.95-4.14-3.8-10.71.34-14.66.17-.16.35-.32.53-.47l.77-.65c4.77-3.83,11.7-3.31,15.84,1.2l11.54,12.59c3.96,4.14,3.81,10.71-.34,14.66-.17.16-.34.32-.52.47Z"/></g><ellipse id="aa" class="cs" cx="272.42" cy="168.12" rx="11.96" ry="12.57" transform="translate(3.42 341.67) rotate(-64.51)"/><ellipse id="ab" class="cs" cx="358.73" cy="164.08" rx="11.96" ry="12.57" transform="translate(56.24 417.28) rotate(-64.51)"/><path id="ac" class="cu" d="M323.46,203.66l.69,17.85,15,3.29c.84,2.43,1.76,44.55-36.73,39.31-25.25-3.44-37.06-26-43.82-46.71l21.42,1.5.1-50.24,43.34,35Z"/><ellipse id="ad" class="ct" cx="316.08" cy="163.52" rx="39.71" ry="51.04" transform="translate(-24.34 59.81) rotate(-10.41)"/><path id="ae" class="cn" d="M319.68,175.65l7.56-.25c.67-.02,1.2-.59,1.18-1.26,0-.09-.02-.18-.04-.27l-5.45-20.62"/><path id="af" class="cn" d="M298.68,143.21s6.7-6,12.29-1"/><path id="ag" class="cn" d="M329.25,141.31s8.56-3.21,12,3.34"/><ellipse id="ah" class="da" cx="310" cy="160.07" rx="4.52" ry="3.03" transform="translate(139.95 464.71) rotate(-88.14)"/><ellipse id="ai" class="da" cx="338.24" cy="161.16" rx="3.02" ry="4.54" transform="translate(-10.75 24.84) rotate(-4.14)"/><path id="aj" class="da" d="M301.74,101.48l-.09.12c-12.92,1.88-27.35,7.81-35.38,16.44-14.23,15.3-7.69,48.17,6.81,50.4,1.2.19,2.41.31,3.62.36-.13-.83-.24-1.66-.34-2.5-.34-2.99-.47-5.99-.39-9,19.76-7.38,19.72-37,19.69-39.47,4.19,3.34,9.68,9.06,8.26,15.32l43.71,2.76c4.41,7.63,7.19,16.09,8.16,24.85v.35c4.09-5.85,4.29-15,.86-24.63l14.75.93s13.6-49.91-69.66-35.93Z"/><g id="ak"><path class="cr" d="M361.72,170.12c6.45-1,11.86,7.59,13.46,17.95s-2.34,19.58-8.8,20.58h-.22"/><path class="cr" d="M272.27,174.22c6.46-1,13,6.59,14.6,17s-2.34,19.58-8.8,20.57h-.22"/></g><path id="al" class="cn" d="M321.14,190.57s-17.26,10.71-18.14-12.56l18.14,12.56Z"/></g><g id="am"><path class="cn" d="M269.73,322.61s-13.58-6.21-20.56,6.59"/><path class="cn" d="M268.56,317.18s-11.83-13.58-26.18,4.27"/><g id="an"><path class="cu" d="M352.65,301.01l15.71-6s12.3-13.57,17.73-17.64,16.11-3.57,8.92,2.72-8.22,10.08-8.22,10.08c0,0,18.92-5.51,29.32-12,10.63-6.63,8.32,4.75,8.32,4.75,0,0,8,1.1,4.93,5.22,0,0,6.15,3.52,0,7.05,0,0,8.72.92,3.73,6.13-3.63,7.42-28.81,21.48-44.26,20.34l-8.64,3.8-10.89,5.37"/><path class="cu" d="M398.81,294.01s19.19-4.72,25.62-11"/><path class="cu" d="M401.32,300.61c2.08-.92,17.4-3.74,27.11-13.11"/><path class="cu" d="M403.79,307.44c4.35-1.85,13.9-1.31,25.64-11.69"/></g><path id="ao" class="cn" d="M261.5,265.01c7.21,28.06,8.81,58.38,8.81,58.38l81.54-22.23,17.15,29.64s-19.69,9.5-60.8,30.34c-36.4,18.45-82.34,33.86-99.55-14.28"/></g></g><g id="ap"><g id="aq"><g id="ar"><path id="as" class="da" d="M1016.64,658.51v94.64h-122.38s-.38-34.72,56-41.12v-50.62l66.38-2.9Z"/><path id="at" class="da" d="M915.49,658.51v94.64h-122.37s-.39-34.72,56-41.12v-50.62l66.37-2.9Z"/></g><g id="au"><path class="cu" d="M952.26,413.27l-93.32,61.11c-11.15,12.62-17.52,28.76-18,45.59l-6.05,168.79h77s106.47,1.94,106.47-5.82c0-6.22,6.3-119,8.8-163.62.57-10.18,8.74-18.29,18.93-18.78,18.16-.89,45.22-2.16,57.1-2.53,93.23-3.25,68.3-41.72,57.28-69.1-4.26-10.57-8.38-20.64-11.63-28.26"/><path class="cn" d="M1047.86,406.39l-107.07,44.32c-13.41,8.17-13.55,32.42-14.17,49.58l-6,188.47"/></g></g><path id="av" class="cv" d="M1175.19,336.77c-27.73-165.24-72.85-141.9-95.87-141.12l-52.43,2.1c0-.69-.07-1.38-.23-2.06-.43-1.91-2.47-3.45-5.1-4.67v-.08c6.68-1.67,19.52-5.39,19.37-8.29-.22-4.09-25.82-2.13-33.68-1.64-4,.24-11.77,2.62-18.36,4.87-8.59,2.94-15.58,9.32-19.3,17.61-1.43,3.18-5.71,14.14-7,17.25l-16.59-7.5s-31.65,72.37-39,91.2c-.82,2.35-1.5,4.74-2.06,7.16-15.52,46.41,17.16,70.49,17.16,70.49l159.32,1.62-18.48,15.7c-2.71,3.1,86.89-3.88,90-3.49,1.59.19-6.47-12.09-14.71-24.14,19.27-7.93,38.19-19.69,36.96-35.01Z"/><g id="aw"><path class="cn" d="M1138,305.43s-14.71-6.85-34.84,6.94c0,0-22.72-38.66-20.32-59.13"/><path class="cn" d="M1024.24,349.11c2.18-1.2,79.49-36.48,79.49-36.48"/><polyline class="cn" points="962.14 320.71 992.78 233.64 983.32 229.43"/></g><g id="ax"><polygon id="ay" class="cu" points="1076.64 203.43 1058.37 156.77 1018.29 182.31 1023.18 204.88 1021.91 252.85 1076.64 203.43"/><path id="az" class="da" d="M1002.36,105.6s33.95,21.62,17.32,41.69c0,0-7.41,8.38-13.49,6.69,0,0,4.5-7.12-.64-10.85,0,0-1.69,21.43-19.24,17,0,0,6.5-9.46,4.84-20.85-3.47-23.79,2.09-38.01,11.21-33.68Z"/><path id="ba" class="cu" d="M1072.77,139.9s6.84-41.81-35.46-49.33c-3.94-.7-31-5-36.06,17.46-3.41,15-4.15,31.24-3.83,43.87,0,.08.23,23.88,9.54,37.17s30.16,12.21,41.23,5.77,13.11-9.81,16.25-17.51,8.31-37.34,8.31-37.34l.02-.09Z"/><polyline id="bb" class="cn" points="1014.89 142.75 1010.57 163.26 1018.05 162.08"/><ellipse id="bc" class="da" cx="1005.43" cy="141.13" rx="3.3" ry="2.13" transform="translate(771.34 1129.07) rotate(-84.66)"/><ellipse id="bd" class="da" cx="1025.61" cy="143.38" rx="2.13" ry="3.3" transform="translate(-8.97 97.88) rotate(-5.44)"/><path id="be" class="cn" d="M1037.69,128.68c-2.08-2.89-5.57-4.43-9.11-4"/><path id="bf" class="cn" d="M1010,123.01s-7.31-3.36-10.57,1"/><path id="bg" class="da" d="M1039.78,108.46s-16.41,56,20.86,62c0,0,21.71,4,26.72-3.65,0,0-15.68-8.47-13.63-17.44,0,0,17.56,19.53,33.07,5.71,0,0-25.69-4.47-23.24-27.6,1.76-16.57-37.95-32.47-43.78-19.02Z"/><path id="bh" class="cy" d="M1107.91,116.85l-22.69-3.6c-2.24-15.32-11-37.29-42.33-41.16-49-6-50.78,41.64-50.78,41.64l113.48,17.75c4.06.51,7.77-2.36,8.28-6.42.49-3.88-2.12-7.48-5.96-8.21Z"/><path id="bi" class="cn" d="M1033.07,167.11s-3.15,7.23-13.37,5.55"/></g><g id="bj"><path class="cu" d="M956.67,218.75c.52-1.27,1-2.49,1.37-3.65,2.11-5.51,3.93-9.89,5.5-13.37,3.72-8.29,10.7-14.66,19.3-17.6,6.59-2.26,14.33-4.63,18.36-4.88,7.86-.48,33.46-2.44,33.68,1.64.15,2.91-12.69,6.62-19.38,8.3l-5.34,20.44s-6.25.75-9.33,2.43c-6.3,3.44-12.52,9.13-17.06,8.63,0,0-.32,3.25-1.3,8.88"/><path class="cu" d="M1000.65,185.37s18.54,2.35,19.93,8.56-3.86,6.56-3.86,6.56"/><path class="cu" d="M1000,192.81s16.33,3.49,17.25,9.79-4.34,6.26-4.34,6.26"/><path class="cu" d="M998.86,202.01s19.57,4.52,12.07,11.43-11.27,6.15-11.27,6.15c0,0-5.36-3.41,3.29-8.71"/></g><g id="bk"><path class="cu" d="M1025.48,349.38l-10.09,1.92c-1.22.23-21.76,13.29-21.76,13.29l21.2,13.69s1.55,1.54,33.64-.52c-2.29-8.04-14.24-20.26-22.99-28.38Z"/><path class="cu" d="M1021.4,350.88c-9.3.44-18.55,1.71-27.62,3.8-8.42,2-22.73,5.38-24,7.45-3,4.86,10.18,6.11,16,1.83"/><path class="cu" d="M991.58,369.01c-11.83,4.2-18.1,5.16-15.89.28,1.27-2.81,20.68-13.67,24.55-15s25.29-4.49,25.29-4.49"/><path class="cu" d="M1006,360.57c-4.81,1.91-9.51,4.08-14.08,6.5-6.09,3.36-9.63,6.83-9.09,8s5.42,3.29,9.42,1.49c5.54-3.67,18.28-8,18.28-8-1.38-.19-10.14,4.29-15,6.27s-8.45,7.07,3.57,5.41l18.18-2.06"/></g></g><g id="bl"><g id="bm"><path id="bn" class="cy" d="M1229.8,621.9l1.34,81.61s-47,11-59.41,50.11l104-.08,16.56-151.45-62.49,19.81Z"/><path id="bo" class="cy" d="M1119.49,626.01l-11.91,79.58s-44.18,10.64-55.88,47.35l97.71-.07,30.95-136.25-60.87,9.39Z"/><path id="bp" class="da" d="M1454.89,455.63l-5-63.66-193.61-.32-3.69,21.78-29.93-.8c-75.81-3.44-87.92,53.74-87.92,53.74l-62.25,243.38,92.65.45,47.15-171.86-21.44,170.25,94.23,1.4,18.42-175.11c22.21-5.06,94.34-22,112.8-31.93,18.7-6.94,39.47-30.6,38.59-47.32Z"/></g><path id="bq" class="cy" d="M1452.06,290.07c-17.38-26.77-40.32-49.48-67.27-66.59,11.69-19.07,9.62-38.45-39.55-42.35-79.59-2.79-87.71,18.55-87.84,35.18-26.24,20.87-42.23,43.15-51.71,64.22-11.42-10.55-32.53-29.88-37.92-33.47-7.5-5-12.26,3.81-18.31.73s-8.12-4-8.12-4c0,0-5.26,18.61-20.17,23.67,0,0,.3,2.78,3.64,8.62s-3.87,10,1.47,17.19,51.72,66.46,51.72,66.46c5.59,5.53,18.57,25,32.71,19.08v-1.27l.57.73,100.1.48-2.68,16.58c126.83,12.16,117.88,69.86,153,47.13l-3.7-76.76c12-14.44,17-40.12-5.94-75.63Z"/><path id="br" class="cz" d="M1354.45,202.5l12.67,8.53s-47.34,28.91-53.52,103.3c-4.11,49.42-5,106.8-5,106.8l-22,3.1s7.3-135-1.33-160.1-.74-53.35,5.1-57.92,64.08-3.71,64.08-3.71Z"/><g id="bs"><path class="cu" d="M1122.19,226.87c-.76-.51-23.55-15-29.47-16.53s-6.71,5.55,11.58,15.7c-5.65,5.88-7.07,14.64-3.56,22,1.7,3.87,17.21,19.27,22.54,19.89s25.25-4.6,21.06-17-11.34-16.83-22.15-24.06Z"/><path class="cu" d="M1133.5,235.19s-19.69-7.78-21.69-6.65c-2.78,1.59.3,9.61,9,13.49,0,0-6.06,7.87-2.72,14"/><path id="bt" class="da" d="M1123.22,276.01c-3.94-5.91-4.54-8.59-4.54-8.59,14.27-3.21,21.38-24.34,21.38-24.34,0,0,2.79.69,9.14,4.27,2.56,1.44,4.9.29,6.73,0,2.55,19.76-22.84,35.25-31.56,39.51-1.06-4.07,1.85-6.36-1.15-10.85Z"/></g><g id="bu"><path class="cu" d="M1291.11,327.76c-9.13-1.81-18.41-2.8-27.72-2.95-8.66-.08-23.36-.25-25.11,1.44-4.13,4,8.41,8.39,15.13,5.64"/><path class="cu" d="M1309.94,328.14c-6-.37-14.32-.86-24.76-1.42-1.24-.07-24.32,7.67-24.32,7.67l17.29,18.39s1,1.69,28.31,6.76"/><path class="cu" d="M1257.8,338.21c-12.49,1.23-18.81.65-15.49-3.56,1.91-2.42,23.36-8.29,27.44-8.68s25.63,1.73,25.63,1.73"/><path class="cu" d="M1273.83,333.46c-5.13.7-10.21,1.67-15.23,2.92-6.72,1.8-11,4.32-10.74,5.55s4.47,4.49,8.79,3.71c6.26-2.23,19.67-3.37,19.67-3.37-1.3-.52-10.88,1.72-16.06,2.48s-9.9,4.83,2.16,6.11l18.14,2.37"/><path id="bv" class="da" d="M1308.15,363.71c-5.93-2.24-7.83-4-7.83-4,7.69-12,0-31.9,0-31.9,0,0,2-.53,8.24-1.79,1.96-.37,3.68-1.56,4.73-3.26,12.76,14.46,5.1,39.87,1.7,49.08-2.99-2.66-2.34-6.44-6.84-8.13Z"/></g><g id="bw"><path class="cn" d="M1391.2,306.31s-12.68,1.24-15.9,17.89"/><path class="cn" d="M1337.39,258.42s-13,26.94-14.73,45.25"/><path class="cn" d="M1277.37,259.6s6,25.78,4,44.07"/><path class="cn" d="M1394.42,379.01s-67.52-4.59-75.09-6.53-4.77-7.48-10.25-9.59-7.24-3.8-7.24-3.8c7.11-11.34,0-30.13,0-30.13,0,0,1.87-.51,7.62-1.69s3.89-7.11,11.68-7.79,74.63,6.94,74.63,6.94"/><path class="cn" d="M1208.59,280.14s16.87,8.53,26.76,23.08"/></g><path id="bx" class="da" d="M1385.13,222.92c-11.48,19.19-37.23,38.22-43.26,41,0,.03,0,.05,0,.08,17.21.84,57.4-21.37,64.19-25.27-8.34-6.24-15.26-12.06-20.93-15.81Z"/><path id="by" class="da" d="M1257.76,225.23c-.12-2.82-.42-6.07-.36-9.51h-.05c-4.92,3.88-9.55,7.81-13.89,11.79,5.2,10.08,15.74,25.36,27.24,32.46-3.44-7.18-12.16-16.73-12.94-34.74Z"/><g id="bz"><path id="ca" class="cu" d="M1351,149.34s15,.29,12.32,13.72-19.26,5.66-19.26,5.66l2.22-19.09,4.72-.29Z"/><path id="cb" class="cu" d="M1308.26,107.01c-4-.33-31-2-34,20.56s.23,47.54,2.74,58.93,54.35,6.12,57.28,5.1,6.43-4.45,6.43-4.45l7.11-34.7s2.9-41.89-39.56-45.44Z"/><path id="cc" class="cu" d="M1345.42,167.65l.94,28.15,8,9.14h0c-17.05,11.28-32.52,24.79-46,40.17,0,0-18.42-19.45-21.65-49.92l43.16,5.35,3.38-16.86,12.17-16.03Z"/><path id="cd" class="cw" d="M1342.67,152.18c-2.57,2.49-9.46,16.84-11.14,23.53,0,0-17-5.62-41.46-6,0,0-13.31.26-18.62,1.8,0,0,1.15,23.7,11.94,36s33.62,8.84,44.32,1.46,12.48-10.9,15-18.79,9-37.32,9-37.32l-9.04-.68Z"/><path id="ce" class="da" d="M1349.67,157.25s7-10.91,9.77-22.25c2.66-10.64-2.44-21.71-12.26-26.6-8.26-4-14.38-.86-14.38-.86,0,0,8.76-14.91-4.39-28.09-4.65-4.66-11.01-7.19-17.59-7-9.16.08-17.4,5.58-21,14,0,0-17.19-31.57-52.42-12.89-3.55,1.89-7.56,7.14-9.47,10.68-11.64,21.44,26.71,46.84,46.68,48.85,21.92,2.21,34.75-1.42,41.81-6.79-5.26,3.19.65,35.99,33.25,30.95Z"/><polyline id="cf" class="cn" points="1290.93 160.62 1288.56 181.27 1295.84 179.41"/><ellipse id="cg" class="da" cx="1282.29" cy="159.19" rx="2.12" ry="3.27"/><ellipse id="ch" class="da" cx="1301.76" cy="158.65" rx="2.12" ry="3.27"/><path id="ci" class="cn" d="M1312.85,145.48c-2.18-2.78-5.69-4.17-9.18-3.61"/><path id="cj" class="cn" d="M1284.24,141.53s-5.86-1.52-7.33,3.27"/><path id="ck" class="cn" d="M1307,186.15s-1,6.26-6.75,5.25"/></g></g><g id="cl"><rect class="cn" x="123.86" y="380.79" width="1348.21" height="373.71"/><rect class="da" x="121.3" y="380.01" width="1352.39" height="48.1"/></g><line id="cm" class="cn" x1="3" y1="755.02" x2="1595.1" y2="755.02"/></g></g></svg>