<?xml version="1.0" encoding="UTF-8"?><svg xmlns="http://www.w3.org/2000/svg" viewBox="0 0 1248 300"><defs><style>.c{fill:#475569;}.d{fill:#94a3b8;}.e{fill:#facc15;}.f{fill:#60a5fa;}.g{fill:#0f172a;}.h{fill:#a78bfa;}</style></defs><g id="a"><path class="g" d="M384.67,120.71c0-33.48,26.99-59.61,60.55-59.61s60.64,26.22,60.64,59.61-26.22,59.78-60.64,59.78-60.55-25.37-60.55-59.78ZM413.54,120.71c0,18.53,12.9,32.62,31.68,32.62s31.86-13.07,31.86-32.62-13.66-32.37-31.86-32.37-31.68,13.58-31.68,32.37Z"/><path class="g" d="M528.23,96.79v-7.17c0-17,10.76-32.79,35.87-32.79,6.06,0,10.93.77,17.51,2.73l-2.82,21.86c-2.73-1.2-6.75-2.05-10.76-2.05-6.92,0-13.83,2.73-13.83,11.79v5.64h30.06v-7.17c0-17,10.76-32.79,35.87-32.79,6.06,0,10.93.77,17.51,2.73l-2.82,21.86c-2.73-1.2-6.75-2.05-10.76-2.05-6.92,0-13.84,2.73-13.84,11.79v5.64h22.72v21.95h-21.78v60.04h-26.9v-60.04h-29.12v60.04h-26.9v-60.04h-13.49v-21.95h13.49Z"/><path class="g" d="M656.17,148.46c5.81,6.92,13.07,11.1,21.44,11.1,4.61,0,8.88-1.28,8.88-5.04s-5.04-4.01-17.68-7.17c-14.86-3.76-26.65-10.68-26.65-25.71s13.49-26.56,33.82-26.56c16.65,0,27.93,8.71,33.39,16.06l-15.8,13.41c-3.07-3.76-9.22-8.63-17.85-8.63-6.32,0-9.74,2.14-9.74,5.38s6.06,4.78,16.06,7.17c15.88,3.76,29.29,10.59,29.29,26.13s-14.6,25.88-33.91,25.88-30.92-7.94-37.66-17.25l16.4-14.78Z"/><path class="g" d="M765.06,95.09c20.16,0,40.99,12.64,40.99,40.05,0,2.99-.26,6.23-.77,9.56h-55.34c1.11,8.88,9.65,13.07,18.11,13.07,7.34,0,13.92-4.61,18.36-10.16l17.08,15.03c-6.23,9.91-19.13,17.85-35.78,17.85-26.05,0-44.07-17.76-44.07-42.7s16.74-42.7,41.42-42.7ZM749.94,128.91h31.26c-.26-6.41-6.75-12.64-15.37-12.64-9.39,0-14.95,5.89-15.88,12.64Z"/><path class="g" d="M812.8,96.79h13.07v-26.3h26.05v26.3h24.85v21.95h-24v26.48c0,8.88,5.04,11.62,12.13,11.62,3.93,0,9.14-1.2,13.24-2.82l1.88,21.86c-5.29,2.73-14.09,4.61-21.78,4.61-18.79,0-32.37-9.05-32.37-30.92v-30.83h-13.07v-21.95Z"/><path class="c" d="M385.7,260.36v-49.73h21.75c14.06,0,25.34,11.06,25.34,24.83s-11.28,24.9-25.34,24.9h-21.75ZM406.29,250.25c8.35,0,14.06-6.74,14.06-14.79s-5.71-14.68-14.06-14.68h-8.53v29.48h8.53Z"/><path class="c" d="M445.75,235.46c0-14.36,11.57-25.56,25.96-25.56s26,11.24,26,25.56-11.24,25.63-26,25.63-25.96-10.88-25.96-25.63ZM458.13,235.46c0,7.95,5.53,13.99,13.59,13.99s13.66-5.6,13.66-13.99-5.86-13.88-13.66-13.88-13.59,5.82-13.59,13.88Z"/><path class="c" d="M510.64,235.46c0-14.65,11.46-25.56,26.22-25.56,8.83,0,17.65,4.83,22.19,12.41l-9.27,6.85c-3.04-4.61-6.81-7.98-12.93-7.98-8.39,0-13.88,6.01-13.88,14.28s5.49,14.36,13.88,14.36c5.53,0,9.7-2.71,13.15-7.91l9.23,6.74c-4.72,7.84-12.96,12.45-22.38,12.45-14.76,0-26.22-10.99-26.22-25.63Z"/><path class="c" d="M580.07,243.07c2.82,4.39,7.47,7.14,12.3,7.14,3.92,0,7.14-1.58,7.14-3.85,0-3.19-4.21-4.14-10.18-5.93-8.9-2.67-16.99-5.53-16.99-15.71,0-9.16,8.94-14.83,18.05-14.83s15.16,4.21,19.56,10.62l-8.9,6.56c-2.2-3.15-5.82-6.59-10.66-6.59-3.48,0-5.9,1.65-5.9,4.03,0,3.3,3.81,3.88,9.19,5.68,11.24,3.74,17.98,6.7,17.98,15.78,0,10.36-10.11,15.12-19.59,15.12-8.94,0-17.32-3.96-21.06-11.43l9.04-6.59Z"/></g><g id="b"><path class="f" d="M293,150c0,5.37-.3,10.67-.88,15.88h-16c.65-5.2.98-10.5.98-15.88,0-70.2-56.91-127.11-127.11-127.11S22.89,79.8,22.89,150s56.91,127.11,127.11,127.11h103.07l-6.09,15.89h-96.98c-78.98,0-143-64.02-143-143S71.02,7,150,7s143,64.02,143,143Z"/><path class="h" d="M265.25,245.33l-6.09,15.89h-109.16c-61.43,0-111.22-49.79-111.22-111.22s49.8-111.22,111.22-111.22,111.22,49.79,111.22,111.22c0,5.4-.38,10.7-1.13,15.88h-16.07c.87-5.17,1.32-10.47,1.32-15.88,0-52.65-42.69-95.33-95.33-95.33s-95.33,42.68-95.33,95.33,42.68,95.33,95.33,95.33h115.25Z"/><path class="e" d="M277.43,213.55l-6.09,15.89h-121.34c-43.88,0-79.45-35.57-79.45-79.44s35.57-79.45,79.45-79.45,79.45,35.57,79.45,79.45c0,5.44-.55,10.75-1.59,15.88h-16.3c1.3-5.08,2-10.4,2-15.88,0-35.1-28.46-63.56-63.56-63.56s-63.56,28.46-63.56,63.56,28.46,63.55,63.56,63.55h127.43Z"/><path class="d" d="M185.53,181.78c7.55-8.43,12.14-19.57,12.14-31.78,0-26.32-21.34-47.66-47.66-47.66s-47.67,21.34-47.67,47.66,21.34,47.67,47.67,47.67h133.38l6.07-15.89h-103.92ZM118.22,150c0-17.55,14.23-31.77,31.78-31.77s31.77,14.23,31.77,31.77-14.23,31.78-31.77,31.78-31.78-14.23-31.78-31.78Z"/></g></svg>